<svg width="30" height="30" viewBox="0 0 30 30" fill="none" xmlns="http://www.w3.org/2000/svg">
<path d="M29.1419 23.5339C30.2843 24.6762 30.2843 26.5347 29.1419 27.6771C29.1403 27.6789 29.1385 27.6805 29.1367 27.6823L27.1321 29.6619C26.9037 29.8874 26.6061 30 26.3088 30C26.0062 30 25.7041 29.8837 25.4748 29.6516C25.0202 29.1911 25.0248 28.4491 25.4853 27.9943L26.6581 26.8359H7.8516C5.26685 26.8359 3.16411 24.7332 3.16411 22.1484V3.31352L1.99499 4.46709C1.53425 4.92165 0.792214 4.91661 0.337656 4.45587C-0.116903 3.99513 -0.111867 3.2531 0.348871 2.79854L2.3287 0.84549C3.46784 -0.27832 5.32132 -0.27832 6.46046 0.84549L8.44029 2.79854C8.90102 3.2531 8.90606 3.99513 8.4515 4.45587C8.22216 4.68819 7.91981 4.80469 7.61723 4.80469C7.31991 4.80469 7.02259 4.69231 6.79417 4.46709L5.50786 3.19794V22.1484C5.50786 23.4407 6.55934 24.4922 7.8516 24.4922H26.7769L25.4853 23.2166C25.0248 22.7618 25.02 22.0198 25.4748 21.5593C25.9296 21.099 26.6716 21.0942 27.1321 21.549L29.1367 23.5286C29.1385 23.5304 29.1403 23.532 29.1419 23.5339V23.5339ZM26.4844 0H11.3086C10.6597 0 10.1345 0.527344 10.1368 1.17622C10.1393 1.82167 10.6632 2.34375 11.3086 2.34375H26.4844C27.1317 2.34375 27.6563 2.86835 27.6563 3.51562V18.75C27.6563 19.3954 28.1783 19.9196 28.8238 19.9219C29.4727 19.9242 30 19.3989 30 18.75V3.51562C30 1.57402 28.426 0 26.4844 0ZM17.2266 20.0912C17.8739 20.0912 18.3985 19.5667 18.3985 18.9194V13.7036C18.3985 11.9266 16.9528 10.481 15.1758 10.481C14.3974 10.481 13.6826 10.7584 13.125 11.2196C12.5675 10.7584 11.8527 10.481 11.0743 10.481C10.6272 10.481 10.2011 10.5727 9.8138 10.738C9.60529 10.5471 9.32835 10.4297 9.02348 10.4297C8.3762 10.4297 7.8516 10.9543 7.8516 11.6016V18.9258C7.8516 19.5731 8.3762 20.0977 9.02348 20.0977C9.67075 20.0977 10.1953 19.5731 10.1953 18.9258V13.7036C10.1953 13.2191 10.5897 12.8247 11.0743 12.8247C11.5588 12.8247 11.9532 13.2191 11.9532 13.7036V18.9258C11.9532 19.5731 12.4778 20.0977 13.125 20.0977C13.7723 20.0977 14.2969 19.5731 14.2969 18.9258V13.7036C14.2969 13.2191 14.6913 12.8247 15.1758 12.8247C15.6603 12.8247 16.0547 13.2191 16.0547 13.7036V18.9194C16.0547 19.5667 16.5793 20.0912 17.2266 20.0912ZM22.544 6.32812C22.5378 6.32812 22.5318 6.32904 22.5256 6.32904C22.5197 6.32904 22.5137 6.32812 22.5076 6.32812C21.0173 6.32812 19.8047 7.54211 19.8047 9.03419C19.8047 9.68124 20.3293 10.2061 20.9766 10.2061C21.6239 10.2061 22.1485 9.68124 22.1485 9.03419C22.1485 8.83781 22.313 8.67188 22.5076 8.67188C22.5137 8.67188 22.5197 8.67096 22.5259 8.67096C22.5318 8.67096 22.5378 8.67188 22.544 8.67188C22.7305 8.67188 22.8893 8.82431 22.9022 9.00993C22.879 9.09576 22.6994 9.62654 21.5765 10.8618C20.88 11.6277 20.1956 12.2514 20.189 12.2573C19.8303 12.5828 19.709 13.0955 19.8834 13.5471C20.0578 13.9989 20.4923 14.2969 20.9766 14.2969H24.1406C24.7879 14.2969 25.3125 13.7723 25.3125 13.125C25.3125 12.4777 24.7879 11.9531 24.1406 11.9531H23.7376C24.7781 10.7281 25.2468 9.81651 25.2468 9.03419C25.2468 7.54211 24.0342 6.32812 22.544 6.32812Z" fill="#303766"/>
</svg>
