<svg width="16" height="15" viewBox="0 0 16 15" fill="none" xmlns="http://www.w3.org/2000/svg">
<path d="M15.3814 12.8532C15.3154 12.5364 15.0052 12.333 14.6883 12.399C14.3715 12.4649 14.1682 12.7753 14.2341 13.092C14.2721 13.2745 14.2269 13.4616 14.11 13.6053C14.0424 13.6885 13.8914 13.8281 13.6413 13.8281H2.19754C1.9474 13.8281 1.79649 13.6885 1.72882 13.6053C1.61195 13.4616 1.56672 13.2745 1.60472 13.092C2.2128 10.1713 4.78902 8.03771 7.76409 7.96576C7.81562 7.96775 7.86739 7.96875 7.91942 7.96875C7.97163 7.96875 8.0236 7.96772 8.07534 7.96573C10.171 8.01601 12.108 9.07746 13.281 10.8269C13.4612 11.0957 13.8252 11.1674 14.094 10.9872C14.3628 10.807 14.4346 10.443 14.2543 10.1743C13.2929 8.74037 11.8968 7.6977 10.305 7.17378C11.275 6.44637 11.9038 5.28741 11.9038 3.98438C11.9038 1.7874 10.1164 0 7.91942 0C5.72242 0 3.93505 1.7874 3.93505 3.98438C3.93505 5.2882 4.56458 6.44777 5.53562 7.17513C4.64594 7.46804 3.81112 7.92381 3.08046 8.52481C1.74065 9.62687 0.8091 11.164 0.45745 12.8532C0.347235 13.3825 0.479276 13.9261 0.819647 14.3447C1.15835 14.7611 1.66058 15 2.19754 15H13.6413C14.1783 15 14.6805 14.7611 15.0192 14.3447C15.3596 13.9261 15.4916 13.3825 15.3814 12.8532ZM5.10692 3.98438C5.10692 2.43354 6.36859 1.17188 7.91942 1.17188C9.47025 1.17188 10.7319 2.43354 10.7319 3.98438C10.7319 5.48745 9.54672 6.71892 8.06178 6.7933C8.0144 6.79242 7.96694 6.79198 7.91942 6.79198C7.87214 6.79198 7.82485 6.79245 7.77763 6.79333C6.29242 6.71924 5.10692 5.48766 5.10692 3.98438Z" fill="#808080"/>
</svg>
