<svg width="16" height="15" viewBox="0 0 16 15" fill="none" xmlns="http://www.w3.org/2000/svg">
<path d="M15.0531 11.2615L12.8754 9.08285C12.5829 8.79189 12.1913 8.63157 11.7728 8.63157C11.3373 8.63157 10.9261 8.80304 10.6152 9.11414L9.76746 9.96167C9.10874 9.59553 8.23323 9.09195 7.32425 8.18297C6.41632 7.27473 5.91268 6.40178 5.54468 5.7395L6.3932 4.89161C7.02406 4.25944 7.03696 3.24524 6.42206 2.6309L4.24475 0.453525C3.9531 0.161065 3.56147 0 3.14191 0C2.71613 0 2.31334 0.163932 2.00424 0.462314C1.81724 0.612908 0.878837 1.4413 0.529094 3.14968C0.0394162 5.54091 1.1645 7.84164 4.41248 11.0909C8.04075 14.7181 11.1382 15 12.0011 15C12.1808 15 12.2892 14.9889 12.3181 14.9855C14.0102 14.7872 14.6161 14.0357 15.0584 13.487C15.6316 12.7759 15.6296 11.8402 15.0531 11.2615ZM14.3305 12.9002C13.9147 13.4159 13.522 13.903 12.2093 14.0569C12.2086 14.0569 12.1368 14.065 12.0011 14.065C11.2291 14.065 8.44771 13.8028 5.07364 10.4298C2.07841 7.4333 1.02712 5.37842 1.44506 3.33718C1.75011 1.84708 2.55999 1.21372 2.59146 1.18966L2.61939 1.16903L2.64388 1.14447C2.77908 1.0094 2.95592 0.934976 3.14185 0.934976C3.31115 0.934976 3.46772 0.998429 3.58316 1.11424L5.76097 3.29211C6.01154 3.54244 5.9982 3.96367 5.73161 4.23083L4.77201 5.18961L4.75624 5.20613C4.50617 5.48158 4.53559 5.85382 4.67334 6.09623C5.07083 6.81354 5.6153 7.79595 6.66297 8.84393C7.70715 9.88811 8.68813 10.4321 9.40345 10.8289C9.47507 10.8691 9.62292 10.9365 9.80798 10.9365C10.0265 10.9365 10.2272 10.844 10.3757 10.6754L11.2763 9.77511C11.4107 9.6406 11.587 9.56648 11.7727 9.56648C11.9423 9.56648 12.0997 9.63012 12.2149 9.74469L14.3912 11.9219C14.6677 12.1994 14.5535 12.6235 14.3305 12.9002Z" fill="#808080"/>
<path d="M9.54786 2.29084C10.3511 2.38328 11.2969 2.86984 11.9574 3.53037C12.6241 4.19701 13.1118 5.15243 13.1999 5.96442C13.2259 6.20396 13.4284 6.38148 13.6641 6.38148C13.6809 6.38148 13.698 6.38055 13.715 6.37874C13.9717 6.35088 14.1572 6.12025 14.1294 5.86357C14.018 4.83715 13.439 3.68981 12.6186 2.86928C11.8058 2.05641 10.6701 1.47891 9.65476 1.36203C9.39839 1.3323 9.16645 1.51655 9.1369 1.77299C9.10736 2.02942 9.2913 2.26129 9.54786 2.29084Z" fill="#808080"/>
<path d="M9.11138 4.24942C9.54584 4.29947 10.1471 4.62173 10.541 5.0156C10.9382 5.41291 11.2611 6.01989 11.3086 6.45902C11.3346 6.69862 11.5372 6.87614 11.7728 6.87614C11.7897 6.87614 11.8067 6.87521 11.8237 6.8734C12.0804 6.84554 12.266 6.61491 12.2381 6.35823C12.1568 5.6085 11.6591 4.81159 11.202 4.35445C10.749 3.90136 9.95984 3.40601 9.21828 3.32055C8.96154 3.2907 8.72991 3.47501 8.70037 3.73145C8.67088 3.98794 8.85489 4.21988 9.11138 4.24942Z" fill="#808080"/>
</svg>
