<svg width="70" height="60" viewBox="0 0 70 60" fill="none" xmlns="http://www.w3.org/2000/svg">
<rect width="70" height="60" rx="5" fill="white"/>
<path d="M43.4905 27.7774V22.246C43.4905 21.8227 43.1897 21.4635 42.7804 21.3835L35.3919 17.1178C35.12 16.9607 34.785 16.9607 34.513 17.1178L26.949 21.4849C26.6771 21.6419 26.5095 21.932 26.5095 22.246V27.7775C23.5951 28.6944 20 30.587 20 33.6406C20 36.2611 22.778 38.5375 27.4593 39.7788L27.1101 41.3779C26.9603 42.0636 27.6398 42.6436 28.2952 42.3815L32.6897 40.6237C33.2711 40.3912 33.4303 39.6396 32.9902 39.1917L29.709 35.8518C29.2208 35.3551 28.3723 35.5979 28.2233 36.2803L27.8348 38.0594C24.1256 37.06 21.7578 35.3507 21.7578 33.6406C21.7578 32.1556 23.5558 30.6554 26.5095 29.6291V30.9802C26.5095 31.2942 26.6771 31.5844 26.949 31.7414L34.5605 36.1359C34.8325 36.2929 35.1675 36.2929 35.4395 36.1359L43.051 31.7414C43.3229 31.5843 43.4905 31.2942 43.4905 30.9802V29.6291C46.4442 30.6554 48.2422 32.1556 48.2422 33.6406C48.2422 36.8953 41.0939 38.5474 37.5834 38.837C37.0996 38.8769 36.7399 39.3015 36.7798 39.7852C36.8193 40.2642 37.2389 40.6287 37.7281 40.5888C42.3043 40.2105 50 38.2331 50 33.6406C50 30.5867 46.4039 28.6941 43.4905 27.7774V27.7774ZM29.594 38.243L30.8111 39.4819L29.181 40.134L29.594 38.243ZM34.9525 18.8937L40.8062 22.2734C40.0916 22.6861 35.4769 25.3503 35 25.6256C34.4797 25.3252 29.927 22.6968 29.1462 22.246L34.9525 18.8937ZM28.2673 23.7683L34.1211 27.148V33.8524L28.2673 30.4728V23.7683ZM41.7327 30.4728L35.8789 33.8524V27.148L41.7327 23.7683V30.4728Z" fill="#303766"/>
</svg>
